<svg width="29" height="29" viewBox="0 0 29 29" fill="none" xmlns="http://www.w3.org/2000/svg">
<path d="M5.59888 8.20084H7.59888M7.59888 8.20084H23.5989M7.59888 8.20084V22.2008C7.59888 22.7313 7.80959 23.24 8.18466 23.615C8.55974 23.9901 9.06844 24.2008 9.59888 24.2008H19.5989C20.1293 24.2008 20.638 23.9901 21.0131 23.615C21.3882 23.24 21.5989 22.7313 21.5989 22.2008V8.20084H7.59888ZM10.5989 8.20084V6.20084C10.5989 5.6704 10.8096 5.1617 11.1847 4.78662C11.5597 4.41155 12.0684 4.20084 12.5989 4.20084H16.5989C17.1293 4.20084 17.638 4.41155 18.0131 4.78662C18.3882 5.1617 18.5989 5.6704 18.5989 6.20084V8.20084M12.5989 13.2008V19.2008M16.5989 13.2008V19.2008" stroke="#666666" stroke-width="2" stroke-linecap="round" stroke-linejoin="round"/>
</svg>
